<?xml version="1.0" standalone="no"?>
<!DOCTYPE svg PUBLIC "-//W3C//DTD SVG 20010904//EN"
 "http://www.w3.org/TR/2001/REC-SVG-20010904/DTD/svg10.dtd">
<svg version="1.0" xmlns="http://www.w3.org/2000/svg"
 width="612.000000pt" height="612.000000pt" viewBox="0 0 612.000000 612.000000"
 preserveAspectRatio="xMidYMid meet">
<metadata>
Created by potrace 1.14, written by Peter Selinger 2001-2017
</metadata>
<g transform="translate(0.000000,612.000000) scale(0.100000,-0.100000)"
fill="#000000" stroke="none">
<path d="M2960 5986 c-3 -2 -53 -10 -110 -17 -170 -19 -218 -27 -345 -58 -121
-29 -355 -101 -370 -113 -5 -4 -15 -8 -22 -8 -7 0 -42 -13 -78 -30 -36 -16
-69 -30 -73 -30 -5 0 -53 -23 -108 -51 -54 -28 -117 -60 -139 -71 -21 -11 -51
-28 -65 -38 -14 -9 -68 -46 -120 -80 -52 -35 -97 -66 -100 -69 -13 -15 -90
-71 -97 -71 -5 0 -16 -8 -25 -17 -8 -10 -46 -45 -83 -78 -37 -33 -82 -75 -101
-92 l-34 -33 -119 0 c-130 0 -165 -9 -217 -57 -74 -67 -88 -165 -35 -243 56
-84 16 -80 777 -80 526 0 677 -3 695 -13 44 -23 69 -42 69 -50 0 -5 7 -15 15
-23 23 -23 20 -121 -5 -162 -25 -41 -73 -70 -125 -76 -22 -3 -434 -7 -916 -9
l-876 -3 -46 -27 c-25 -15 -55 -39 -66 -53 -11 -14 -24 -23 -28 -21 -4 3 -9
-5 -10 -16 -2 -12 -6 -44 -9 -71 -6 -46 10 -126 25 -126 4 0 14 -15 24 -32 11
-21 35 -41 65 -55 l48 -23 829 0 c828 0 830 0 865 21 40 25 59 47 60 70 0 9 7
20 16 23 9 3 159 6 334 6 360 0 357 -1 346 71 -3 20 -3 58 0 83 l7 46 506 0
c492 0 611 -6 611 -33 0 -4 5 -5 10 -2 11 7 110 -38 145 -65 76 -58 118 -117
177 -244 16 -35 18 -247 2 -267 -6 -8 -16 -33 -24 -56 -7 -24 -17 -43 -22 -43
-5 0 -7 -4 -4 -9 3 -5 -22 -37 -57 -72 -62 -64 -132 -109 -167 -109 -11 0 -22
-4 -25 -10 -4 -6 -208 -10 -581 -10 l-574 0 -1 163 c-1 195 -2 206 -20 218 -9
6 -282 8 -718 4 -631 -5 -707 -7 -735 -22 -17 -10 -35 -16 -39 -15 -5 1 -6 -2
-2 -8 3 -5 2 -10 -3 -10 -10 0 -42 -65 -42 -88 -1 -24 -20 -46 -60 -68 -33
-18 -68 -19 -525 -24 -542 -6 -507 -1 -577 -75 -41 -42 -43 -51 -39 -185 1
-16 17 -42 41 -68 22 -22 40 -39 40 -36 0 2 12 -4 27 -13 26 -17 87 -18 1033
-18 l1006 0 38 -25 c43 -29 67 -70 59 -101 -4 -15 -3 -20 5 -15 7 4 12 2 12
-3 0 -6 -4 -11 -8 -11 -4 0 -8 -16 -9 -36 -1 -39 -21 -66 -67 -91 -28 -15 -93
-17 -696 -18 -741 -2 -724 -1 -756 -67 -20 -43 -6 -103 32 -139 l26 -24 322
-5 c340 -5 342 -6 367 -53 18 -33 20 -66 5 -101 -20 -49 -52 -55 -316 -58
-266 -2 -307 -8 -337 -45 -45 -55 -21 -145 45 -172 21 -9 175 -11 590 -9 l561
3 35 34 c27 26 35 43 38 78 2 25 0 47 -4 49 -29 18 30 23 322 26 280 2 332 5
341 18 6 9 8 73 6 165 -2 83 -2 156 0 163 4 9 118 12 526 12 287 0 547 -4 577
-9 70 -12 157 -44 195 -73 78 -61 162 -174 151 -204 -3 -8 -1 -14 3 -14 28 0
35 -216 9 -264 -7 -12 -13 -34 -15 -49 -2 -16 -12 -42 -23 -57 -11 -15 -20
-32 -20 -38 0 -21 -128 -142 -180 -170 -120 -64 -102 -62 -690 -60 l-535 3 -3
113 c-3 106 -4 113 -25 120 -12 4 -240 5 -507 2 l-485 -5 -1 -35 c-1 -57 -3
-64 -32 -85 -26 -19 -47 -20 -722 -25 l-695 -5 -32 -23 c-17 -12 -35 -22 -40
-22 -8 0 -26 -25 -49 -67 -18 -33 -19 -113 -1 -153 8 -19 13 -39 10 -44 -4 -5
-1 -6 4 -3 13 8 46 -27 36 -37 -5 -4 -3 -6 2 -5 6 2 28 -6 50 -17 39 -18 72
-19 925 -21 487 -1 899 -4 917 -7 18 -2 52 -18 77 -35 39 -27 46 -37 56 -85
14 -68 1 -121 -37 -158 -62 -59 -41 -58 -779 -58 l-677 -1 -49 -50 c-27 -28
-46 -54 -43 -60 4 -5 2 -9 -2 -9 -13 0 -8 -92 7 -120 7 -14 16 -32 20 -40 7
-14 42 -38 90 -62 16 -8 102 -14 240 -18 148 -3 222 -9 238 -18 41 -24 117
-75 157 -107 22 -18 56 -40 75 -50 19 -10 39 -24 43 -31 4 -8 14 -14 22 -14 8
0 36 -13 62 -28 26 -16 71 -39 98 -53 28 -13 52 -27 55 -30 6 -7 78 -40 97
-45 7 -1 36 -13 65 -27 157 -74 510 -182 632 -194 21 -2 83 -12 136 -23 87
-18 137 -20 437 -19 232 0 363 4 418 13 44 8 83 12 87 9 4 -2 16 1 26 6 11 6
46 15 78 20 32 6 68 12 79 15 11 3 49 12 85 21 61 15 146 39 180 52 8 3 20 7
25 9 106 31 508 216 543 251 12 12 21 15 38 12 4 0 10 3 13 9 5 8 105 80 149
107 9 6 25 18 36 28 11 9 23 17 26 17 4 0 24 16 46 35 21 20 56 47 77 62 30
21 162 142 230 210 65 66 141 152 154 174 10 16 20 29 24 29 4 0 17 16 29 35
12 19 27 32 32 29 7 -4 8 -2 4 4 -4 7 -2 12 3 12 6 0 10 3 9 8 -2 7 127 210
161 252 12 14 21 31 21 38 0 7 10 29 23 50 33 52 83 152 92 182 4 14 14 33 23
43 8 9 11 17 6 17 -5 0 -4 4 1 8 6 4 18 30 27 57 22 70 52 149 58 155 3 3 6
16 8 30 2 14 8 41 15 60 13 41 9 25 47 175 28 111 37 165 60 365 12 102 11
597 -1 690 -5 41 -14 104 -19 140 -6 36 -12 76 -14 90 -1 14 -9 45 -15 70 -7
25 -16 61 -21 80 -19 78 -32 126 -41 142 -5 10 -9 29 -9 42 0 14 -4 28 -10 31
-5 3 -10 17 -10 31 0 13 -4 24 -8 24 -4 0 -14 21 -21 48 -14 45 -116 271 -147
322 -8 14 -23 41 -32 60 -9 19 -23 41 -30 48 -6 8 -17 23 -23 35 -20 38 -102
160 -140 207 -20 25 -38 50 -40 57 -10 28 -309 338 -404 418 -27 22 -60 51
-76 65 -15 14 -53 43 -84 65 -31 22 -62 45 -68 50 -7 6 -33 24 -59 40 -27 17
-48 33 -48 38 0 4 -5 7 -11 7 -6 0 -23 8 -37 19 -38 26 -104 64 -192 108 -41
21 -76 41 -78 46 -2 4 -10 7 -17 7 -11 0 -91 36 -157 71 -10 5 -25 9 -33 9 -8
0 -23 4 -33 9 -31 16 -66 28 -142 51 -41 12 -85 26 -98 31 -13 5 -34 9 -47 9
-14 0 -25 4 -25 9 0 5 -19 11 -42 14 -24 3 -63 10 -88 16 -46 11 -122 25 -240
43 -70 10 -582 23 -590 14z m483 -426 c40 -6 104 -15 142 -21 39 -6 117 -22
175 -36 58 -14 120 -28 138 -30 18 -3 35 -9 38 -14 3 -5 16 -9 29 -9 13 0 27
-4 30 -10 3 -5 15 -10 26 -10 10 0 27 -4 37 -9 9 -5 31 -14 47 -21 17 -7 38
-16 47 -21 10 -5 25 -9 33 -9 8 0 15 -4 15 -10 0 -5 8 -10 18 -10 16 0 142
-60 266 -129 93 -50 346 -242 346 -262 0 -5 6 -9 13 -9 27 0 396 -398 397
-429 0 -3 15 -23 33 -43 17 -21 43 -59 56 -85 14 -26 32 -59 42 -73 34 -51
119 -218 119 -234 0 -9 5 -16 10 -16 6 0 10 -7 10 -15 0 -8 9 -34 19 -58 21
-44 48 -121 61 -172 5 -16 23 -84 41 -150 35 -131 43 -177 59 -335 13 -126 18
-453 8 -530 -20 -152 -29 -211 -43 -275 -8 -38 -20 -95 -26 -125 -9 -48 -38
-146 -56 -190 -3 -8 -7 -20 -8 -25 -6 -26 -60 -157 -92 -225 -20 -41 -36 -77
-36 -80 0 -10 -60 -116 -83 -147 -13 -17 -24 -35 -24 -38 0 -17 -83 -134 -92
-129 -4 3 -8 2 -7 -3 3 -20 -3 -33 -28 -61 -16 -17 -45 -50 -65 -74 -86 -102
-128 -147 -195 -216 -40 -39 -74 -72 -77 -72 -2 0 -18 -12 -34 -28 -73 -66
-90 -80 -132 -108 -25 -16 -50 -36 -57 -44 -7 -8 -13 -12 -13 -8 0 4 -11 -3
-24 -15 -39 -37 -184 -121 -296 -173 -19 -9 -62 -29 -95 -44 -72 -34 -186 -77
-315 -118 -91 -29 -383 -92 -425 -91 -11 0 -63 -5 -115 -12 -86 -10 -401 -6
-420 6 -3 2 -33 7 -66 10 -103 11 -367 63 -414 82 -8 3 -19 7 -25 8 -47 11
-168 51 -199 66 -22 10 -43 19 -48 19 -17 0 -118 53 -113 59 2 4 84 8 182 10
311 3 677 25 878 51 44 6 94 11 112 10 17 0 34 4 38 10 3 5 21 10 38 10 18 0
56 7 86 15 30 8 57 13 60 13 3 -1 17 3 31 9 14 6 61 19 105 28 82 16 158 39
280 82 69 24 85 30 95 31 3 1 39 15 80 32 93 39 125 52 125 50 0 -1 23 10 50
23 28 14 53 26 58 26 4 0 17 10 29 21 12 11 25 20 30 20 4 0 32 16 62 35 29
19 56 31 60 28 3 -3 8 2 12 11 3 9 11 16 18 16 6 0 22 10 36 22 14 13 42 36
63 52 62 46 183 173 224 234 20 32 40 59 43 62 4 3 18 26 32 51 13 26 32 54
41 63 9 10 17 25 17 35 0 9 15 52 34 96 62 149 92 390 67 552 -13 85 -69 276
-83 281 -4 2 -8 12 -8 23 0 10 -4 19 -10 19 -5 0 -10 5 -10 11 0 14 -81 131
-97 142 -7 4 -13 12 -13 17 0 10 -59 68 -95 94 -18 13 -18 17 -6 40 8 14 17
26 21 26 8 0 110 98 110 106 0 3 8 14 18 25 11 10 25 32 33 47 7 15 21 39 31
54 10 14 18 33 18 41 0 8 6 20 14 26 8 7 19 31 25 54 5 23 16 69 25 102 29
116 32 141 30 250 -1 105 -9 166 -34 265 -6 25 -14 57 -17 73 -3 15 -9 30 -14
33 -5 3 -9 13 -9 24 0 16 -43 106 -98 201 -57 102 -219 273 -327 349 -28 19
-51 38 -53 42 -2 4 -7 8 -12 8 -4 0 -48 25 -96 56 -84 52 -106 63 -194 101
-128 55 -136 58 -190 73 -25 7 -54 16 -65 20 -69 26 -235 68 -355 91 -156 29
-289 47 -455 61 -164 14 -742 16 -1067 3 -111 -4 -198 -3 -198 1 0 10 248 134
268 134 6 0 12 4 12 9 0 7 35 19 72 25 4 1 13 7 20 14 6 6 22 12 34 12 13 0
26 5 29 10 3 6 16 10 29 10 12 0 26 3 30 7 7 7 73 26 131 38 11 2 56 14 100
25 44 12 107 26 140 31 33 5 67 11 75 14 8 2 51 7 95 11 44 3 82 8 84 10 9 9
376 3 444 -6z"/>
<path d="M80 2621 c-46 -25 -69 -58 -74 -108 -6 -60 1 -76 47 -106 56 -36 97
-43 138 -22 35 19 59 39 61 52 0 4 5 19 10 33 15 41 0 91 -42 132 -44 44 -84
50 -140 19z"/>
</g>
</svg>
